PathFileType	4	(X/Y/Z)	C:\Users\Basilio\Documents\Thesis Gigler\squatting_fais\c3dfiles\038\SLS_back_pre4\markers_experimental.trc
DataRate	CameraRate	NumFrames	NumMarkers	Units	OrigDataRate	OrigDataStartFrame	OrigNumFrames
200.000000	200.000000	4	63	mm	200.000000	0	1982
Frame#	Time	FHD			LBHD			RBHD			C7			T10			CLAV			LSHO			LUUPA			LMUPA			LDUPA			LLEP			LMEP			LRAD			LUL			LRFIN			RSHO			RUPA1			RMUPA			RDUPA			RLEP			RMEP			RRAD			RUL			RUFIN			LASI			RASI			USACR			LSACR			RSACR			LTHI1			LTHI2			LTHI3			LTHI4			LLFC			LMFC			LTIB1			LTIB2			LTIB3			LTIB4			LLMAL			LMMAL			LHEE			LMT1			LMT2			LMT5			RTHI			RTHI2			RTHI3			RTHI4			RLFC			RMFC			RTIB1			RTIB2			RTIB3			RTIB4			RLMAL			RMMAL			RHEE			RMT1			RMT2			RMT5			*61			*62			
		X1	Y1	Z1	X2	Y2	Z2	X3	Y3	Z3	X4	Y4	Z4	X5	Y5	Z5	X6	Y6	Z6	X7	Y7	Z7	X8	Y8	Z8	X9	Y9	Z9	X10	Y10	Z10	X11	Y11	Z11	X12	Y12	Z12	X13	Y13	Z13	X14	Y14	Z14	X15	Y15	Z15	X16	Y16	Z16	X17	Y17	Z17	X18	Y18	Z18	X19	Y19	Z19	X20	Y20	Z20	X21	Y21	Z21	X22	Y22	Z22	X23	Y23	Z23	X24	Y24	Z24	X25	Y25	Z25	X26	Y26	Z26	X27	Y27	Z27	X28	Y28	Z28	X29	Y29	Z29	X30	Y30	Z30	X31	Y31	Z31	X32	Y32	Z32	X33	Y33	Z33	X34	Y34	Z34	X35	Y35	Z35	X36	Y36	Z36	X37	Y37	Z37	X38	Y38	Z38	X39	Y39	Z39	X40	Y40	Z40	X41	Y41	Z41	X42	Y42	Z42	X43	Y43	Z43	X44	Y44	Z44	X45	Y45	Z45	X46	Y46	Z46	X47	Y47	Z47	X48	Y48	Z48	X49	Y49	Z49	X50	Y50	Z50	X51	Y51	Z51	X52	Y52	Z52	X53	Y53	Z53	X54	Y54	Z54	X55	Y55	Z55	X56	Y56	Z56	X57	Y57	Z57	X58	Y58	Z58	X59	Y59	Z59	X60	Y60	Z60	X61	Y61	Z61	X62	Y62	Z62	X63	Y63	Z63	

1	0	-143.746826171875	1770.75244140625	-972.302673339844	-301.7700805664063	1732.426025390625	-1032.926879882813	-295.0246582031251	1717.81005859375	-888.776062011719	-356.5358581542969	1553.151977539063	-961.5573730468752	-369.1144104003907	1267.604614257813	-955.6558227539065	-215.7239379882813	1518.030517578125	-972.4483642578127	-284.6212158203126	1549.273559570313	-1141.191650390625	-326.3811950683594	1310.510498046875	-1224.236572265625	-278.4625549316407	1297.27001953125	-1216.207153320313	-305.6121215820313	1244.410400390625	-1229.1318359375	-289.3779296875001	1187.648559570313	-1228.567626953125	-336.6961059570313	1165.967651367188	-1170.124755859375	-157.6136932373047	934.4970703125002	-1134.850952148438	-193.2361450195313	916.3846435546877	-1195.07568359375	-109.2313842773438	867.2322998046877	-1142.005737304688	-266.4562988281251	1538.721801757813	-798.1895751953127	-286.6516113281251	1325.181030273438	-699.7855224609376	-250.9523925781251	1297.430297851563	-716.4555664062501	-285.2720947265626	1256.379638671875	-688.7124633789064	-276.1445617675782	1182.826293945313	-681.6622314453126	-324.4998779296876	1162.635620117188	-741.6621093750001	-144.1663055419922	942.261169433594	-753.7029418945314	-182.040283203125	917.3833618164065	-697.0633544921876	-95.78775787353517	871.8325195312502	-730.5615234375001	-210.8577880859376	1072.37548828125	-1075.165649414063	-212.0322265625001	1086.103149414063	-822.4021606445315	-378.0655212402344	1130.227172851563	-949.6623535156252	-392.5752258300782	1100.847900390625	-976.3276977539065	-390.5393981933595	1102.003662109375	-920.1076660156252	-265.4312438964844	751.1795043945314	-1118.95751953125	-239.6145629882813	670.6127319335939	-1110.65869140625	-192.8920593261719	673.1455078125001	-1089.235229492188	-270.3240051269532	623.4830322265626	-1090.933349609375	-270.3512878417969	561.2872314453126	-1082.119873046875	-257.0341186523438	553.3820190429689	-962.8086547851565	-253.8748626708985	370.3507690429688	-1011.801696777344	-302.2655029296876	332.6701660156251	-1076.83984375	-268.1091918945313	324.4071655273438	-1048.21044921875	-286.7417907714844	247.6950225830079	-1019.648071289063	-381.5588378906251	121.2244033813477	-1037.0673828125	-342.6859741210938	135.3606719970703	-967.448913574219	-432.8736572265626	102.3596801757813	-981.828308105469	-233.7943420410157	48.89258575439455	-976.307067871094	-225.9574279785157	45.48167419433594	-1026.839477539063	-271.6867675781251	34.02080917358399	-1073.634155273438	-276.2916870117188	812.3264770507815	-766.5440063476564	-244.5872344970704	753.2012329101564	-762.5600585937501	-211.3841247558594	751.9769897460939	-767.2240600585939	-279.0348815917969	676.5046997070314	-782.1759033203127	-274.1958007812501	540.6169433593751	-791.7044067382815	-274.7506713867188	539.8750610351564	-912.5239257812502	-242.5477600097657	362.5719909667969	-818.9561767578127	-322.2097473144532	287.6988525390626	-779.291931152344	-276.8864440917969	287.5897827148438	-791.2517089843752	-271.6701354980469	236.247299194336	-821.4522094726565	-343.7499694824219	119.7234802246094	-791.3511352539065	-315.3382568359376	125.32275390625	-870.482116699219	-405.7967224121095	85.83046722412111	-851.8062744140627	-191.9237060546875	48.8360939025879	-849.9840087890627	-193.2423553466797	48.68420791625978	-802.7263183593752	-236.7681427001954	35.20437622070313	-758.2255859375001	nan	nan	nan	nan	nan	nan	
2	0.005	-143.7781372070313	1770.76123046875	-972.3220214843752	-301.8537597656251	1732.426391601563	-1032.96826171875	-295.0296936035157	1717.823486328125	-888.835632324219	-356.5760192871094	1553.17236328125	-961.5369873046877	-369.1092834472657	1267.620971679688	-955.6556396484377	-215.7594299316407	1518.059326171875	-972.445495605469	-284.7036132812501	1549.282592773438	-1141.187622070313	-326.4218444824219	1310.516357421875	-1224.252807617188	-278.4779357910157	1297.236572265625	-1216.193603515625	-305.6303405761719	1244.434326171875	-1229.11181640625	-289.4118957519532	1187.64501953125	-1228.570678710938	-336.7689819335938	1165.953979492188	-1170.130004882813	-157.7046661376953	934.4896240234377	-1134.875	-193.3175354003907	916.3557739257815	-1195.1005859375	-109.3497619628907	867.2246093750002	-1142.052368164063	-266.4805908203126	1538.75439453125	-798.142761230469	-286.6853942871094	1325.172607421875	-699.7769165039064	-250.9389190673829	1297.446899414063	-716.4641723632814	-285.3197326660157	1256.383178710938	-688.7086791992189	-276.1709289550782	1182.798828125	-681.6482543945314	-324.5308532714844	1162.640258789063	-741.6836547851564	-144.287109375	942.242126464844	-753.7045898437501	-182.1388397216797	917.3975830078127	-697.0811767578126	-95.89336395263673	871.8359375000002	-730.6588134765626	-210.8613739013672	1072.395629882813	-1075.164916992188	-212.0346832275391	1086.118896484375	-822.373962402344	-378.0558776855469	1130.189819335938	-949.6528320312502	-392.5804748535157	1100.81982421875	-976.3134765625002	-390.5267028808595	1101.996826171875	-920.1314086914065	-265.4208374023438	751.1986083984376	-1118.958984375	-239.6179504394532	670.6405029296876	-1110.624389648438	-192.9117736816407	673.1389160156251	-1089.185546875	-270.2949829101563	623.4954223632814	-1090.90673828125	-270.3334655761719	561.2724609375001	-1082.12060546875	-257.0054321289063	553.3588256835939	-962.8105468750002	-253.8562622070313	370.3634338378907	-1011.789672851563	-302.2654724121094	332.6659545898438	-1076.819702148438	-268.1092529296876	324.4071044921876	-1048.21044921875	-286.7179565429688	247.6821289062501	-1019.665466308594	-381.5842895507813	121.2346115112305	-1037.037719726563	-342.6893310546876	135.3813629150391	-967.4129638671877	-432.9045715332032	102.389762878418	-981.8085937500002	-233.7646484375001	48.9125442504883	-976.2642822265627	-225.9429779052735	45.48459625244141	-1026.803588867188	-271.6861572265626	34.01925277709962	-1073.622436523438	-276.2980346679688	812.2978515625002	-766.5366821289064	-244.6247253417969	753.1571655273439	-762.5540161132814	-211.3626556396485	751.9766845703126	-767.2615966796876	-279.0348815917969	676.5046997070314	-782.1759033203127	-274.1767272949219	540.6198730468751	-791.723815917969	-274.7385253906251	539.8544311523439	-912.522155761719	-242.5715484619141	362.5997924804688	-818.9556274414065	-322.1990051269532	287.6866455078126	-779.3342895507815	-276.8898010253907	287.5679321289063	-791.2600708007815	-271.6455688476563	236.2611846923829	-821.4858398437502	-343.7958679199219	119.7253646850586	-791.3662109375002	-315.3844909667969	125.3114166259766	-870.5015258789065	-405.787811279297	85.80254364013673	-851.8243408203127	-191.9137878417969	49.87427902221681	-849.898132324219	-193.7418365478516	48.8720169067383	-802.9654541015627	-236.8111724853516	35.22997665405274	-758.1900634765626	nan	nan	nan	nan	nan	nan	
3	0.01	-143.8245391845703	1770.836669921875	-972.3147583007815	-302.0189514160157	1731.861083984375	-1032.994384765625	-295.0885620117188	1717.812866210938	-888.7820434570315	-356.6311340332032	1553.158813476563	-961.5469970703127	-369.1825866699219	1267.614990234375	-955.6766357421877	-215.8094787597657	1518.048706054688	-972.471618652344	-284.7272949218751	1549.285278320313	-1141.200927734375	-326.4826965332032	1310.492553710938	-1224.287841796875	-278.4341430664063	1297.2412109375	-1216.205322265625	-305.7413635253907	1244.39990234375	-1229.09814453125	-289.4519653320313	1187.648803710938	-1228.605224609375	-336.8373718261719	1165.960327148438	-1170.114990234375	-157.7768096923828	934.4524536132815	-1134.9140625	-193.4387817382813	916.3347778320315	-1195.12109375	-109.4501342773438	867.1582641601565	-1142.116333007813	-266.4955139160157	1538.760986328125	-798.1656494140627	-286.7120361328126	1325.165649414063	-699.7616577148439	-250.9639129638672	1297.443603515625	-716.4982910156251	-285.3190307617188	1256.382568359375	-688.7187500000001	-276.1733703613282	1182.828369140625	-681.6535034179689	-324.5640563964844	1162.662963867188	-741.6912841796876	-144.3414001464844	942.2224731445315	-753.7434082031251	-182.16845703125	917.375183105469	-697.1531982421876	-95.93933868408205	871.8477783203127	-730.7344970703126	-210.8578491210938	1072.37548828125	-1075.165649414063	-212.0744171142579	1086.158325195313	-822.4290161132815	-378.0688476562501	1130.214477539063	-949.6586914062502	-392.6603088378907	1100.868408203125	-976.295349121094	-390.5267028808595	1101.996826171875	-920.1314086914065	-265.3794250488282	751.1925048828126	-1118.945678710938	-239.5918579101563	670.6481323242189	-1110.647827148438	-192.9336090087891	673.1359863281251	-1089.216064453125	-269.6593627929688	623.0159301757814	-1090.916870117188	-270.2968750000001	561.2813110351564	-1082.096801757813	-257.0341186523438	553.3820190429689	-962.8086547851565	-253.8984985351563	370.3293762207032	-1011.7724609375	-302.2768859863282	332.6841125488282	-1076.804077148438	-268.1275939941407	324.4112854003907	-1048.205078125	-286.7153930664063	247.6687622070313	-1019.675964355469	-381.4807128906251	120.7516174316407	-1037.209716796875	-342.6859741210938	135.3606872558594	-967.448913574219	-432.8638916015626	102.3310317993164	-981.8251953125002	-233.7285766601563	48.93174743652345	-976.2655029296877	-225.9696655273438	45.48287582397462	-1026.813720703125	-271.7214965820313	34.04578399658204	-1073.621215820313	-276.3257751464844	812.3169555664065	-766.5497436523439	-244.5951538085938	753.2047119140626	-762.5224609375001	-211.3879089355469	751.9981689453126	-767.2694702148439	-279.0381469726563	676.5100708007814	-782.1500244140627	-274.1998291015626	540.6144409179689	-791.734069824219	-274.7309265136719	539.8552246093751	-912.5117187500002	-242.5664062500001	362.5813903808594	-818.973815917969	-322.1990051269532	287.6866455078126	-779.3342895507815	-276.8801574707032	287.5773315429688	-791.2572021484377	-271.4273071289063	235.8792724609376	-821.5684814453127	-343.8332824707032	119.7273025512696	-791.3867187500002	-315.3319702148438	125.2843093872071	-870.4768676757815	-405.793914794922	85.82531738281251	-851.8310546875002	-191.9250793457032	49.17213058471681	-849.749206542969	-193.4283752441407	48.34941864013673	-802.9852294921877	-236.7945404052735	35.22834014892579	-758.2128295898439	nan	nan	nan	nan	nan	nan	
4	0.015	-143.8760223388672	1770.814453125	-972.3850708007815	-302.0140380859376	1732.391235351563	-1032.969970703125	-295.1611633300782	1717.816284179688	-888.790954589844	-356.6854858398438	1553.165893554688	-961.5584716796877	-369.1930847167969	1267.623046875	-955.6111450195315	-215.8286132812501	1518.009033203125	-972.4610595703127	-284.7250366210938	1549.294189453125	-1141.216186523438	-326.5167236328126	1310.505249023438	-1224.262084960938	-278.5104980468751	1297.236450195313	-1216.230712890625	-305.7586975097657	1244.399047851563	-1229.14697265625	-289.5099487304688	1187.654174804688	-1228.596069335938	-336.9461059570313	1166.00732421875	-1170.1318359375	-157.8953094482422	934.4416503906252	-1134.927978515625	-193.5208892822266	916.336853027344	-1195.17138671875	-109.5479583740235	867.1241455078127	-1142.1162109375	-266.4963989257813	1538.771362304688	-798.1644287109377	-286.7286987304688	1325.179321289063	-699.7962646484376	-251.0290069580079	1297.434814453125	-716.5236816406251	-285.3575439453126	1256.369873046875	-688.7277832031251	-276.1976013183594	1182.812255859375	-681.6939086914064	-324.5978393554688	1162.697021484375	-741.6926879882814	-144.3838043212891	942.2382812500002	-753.7946777343751	-182.2245330810547	917.359069824219	-697.2074584960939	-96.01563262939456	871.815856933594	-730.7462768554689	-210.8839263916016	1072.37353515625	-1075.18701171875	-212.0696411132813	1086.113403320313	-822.4258422851565	-378.0903930664063	1130.188232421875	-949.6729736328127	-392.7070922851564	1100.815307617188	-976.339538574219	-390.6141662597657	1101.964111328125	-920.1745605468752	-265.4104309082032	751.1569824218751	-1118.959350585938	-239.6302795410157	670.6461791992189	-1110.658325195313	-192.9153594970704	673.1309204101564	-1089.18798828125	-269.6556091308594	623.0227050781251	-1090.915893554688	-270.3334655761719	561.2724609375001	-1082.12060546875	-257.0054321289063	553.3588256835939	-962.8105468750002	-253.9003143310547	370.3446960449219	-1011.767761230469	-302.3018188476563	332.6658630371094	-1076.8173828125	-268.1319580078126	324.4271240234376	-1048.146728515625	-286.7255859375001	247.6421356201172	-1019.674560546875	-381.5694580078126	121.2035446166992	-1037.061279296875	-342.6098022460938	135.36083984375	-967.476745605469	-432.9155883789064	102.3697357177735	-981.816833496094	-233.7752075195313	48.89996337890626	-976.274108886719	-225.9572906494141	45.48140335083009	-1026.839477539063	-271.7054748535157	34.01860046386719	-1073.606201171875	-276.3472290039063	812.3174438476565	-766.5728149414064	-244.6121215820313	753.1744384765626	-762.5320434570314	-211.3885803222657	751.9968261718751	-767.2699584960939	-279.0599670410157	676.5097656250001	-782.1597290039065	-274.1767578125001	540.6199340820314	-791.723815917969	-274.7768554687501	539.8957519531251	-912.5036621093752	-242.5477600097657	362.5719909667969	-818.9561767578127	-322.2007446289063	287.7015380859376	-779.3357543945315	-276.8867492675782	287.5736694335938	-791.2671508789065	-271.4172668457032	235.8696899414063	-821.5690917968752	-343.7853088378907	119.722412109375	-791.331237792969	-315.3758544921876	125.2831115722657	-870.5009765625002	-405.7972717285157	85.79321289062501	-851.8035888671877	-191.9121246337891	49.87108993530275	-849.899353027344	-193.7595977783204	48.85330963134767	-802.9667968750002	-236.7496795654297	35.23142623901368	-758.1923217773439	nan	nan	nan	nan	nan	nan	
